<svg width="101" height="100" viewBox="0 0 101 100" fill="none" xmlns="http://www.w3.org/2000/svg">
<circle cx="50.5" cy="50" r="50" fill="#33BCCD"/>
<g clip-path="url(#clip0_104_13311)">
<path d="M75.844 50.8696C75.4469 51.6586 74.9544 52.3994 74.3508 53.0435C72.7622 54.7665 70.5223 55.8937 68.1871 56.0387C64.994 56.2641 61.7374 54.6699 59.9264 51.9968C58.1154 49.3237 57.7977 45.6844 59.1321 42.7214C61.8168 36.7955 69.5532 35.6361 73.9536 39.8712C74.462 40.3382 74.9227 40.9018 75.3357 41.5298C77.0831 44.2834 77.2897 47.9549 75.844 50.8696Z" fill="white"/>
<path d="M73.1911 52.8664C71.8091 54.1385 70.014 54.9759 68.1394 55.1047C65.2959 55.2979 62.4046 53.8809 60.7843 51.4976C59.1639 49.1144 58.8939 45.8615 60.0853 43.2367C60.7843 41.6909 61.8645 40.5153 63.1354 39.7102C62.3887 40.4026 61.7692 41.2722 61.3085 42.2867C60.1171 44.9115 60.3871 48.1643 62.0075 50.5475C63.6278 52.9308 66.5191 54.3479 69.3626 54.1546C70.7129 54.058 72.0315 53.6071 73.1911 52.8664Z" fill="#E6E6E6"/>
<path d="M67.5835 56.4412C64.4698 56.4412 61.388 54.8309 59.6088 52.2222C57.7183 49.4364 57.4006 45.6683 58.7827 42.5765C60.0695 39.7263 62.5794 37.7617 65.6613 37.1498C68.7749 36.5379 71.968 37.4557 74.192 39.5974C74.7162 40.0805 75.1928 40.6603 75.6217 41.3366C77.4486 44.1868 77.6551 47.9871 76.1618 51.0306C75.7488 51.868 75.2246 52.6248 74.605 53.285C72.9211 55.1047 70.5859 56.2319 68.203 56.409C67.9965 56.4412 67.79 56.4412 67.5835 56.4412ZM67.5676 37.7295C66.9798 37.7295 66.392 37.7778 65.8042 37.9066C62.9607 38.4541 60.6413 40.2738 59.4499 42.8986C58.1631 45.7327 58.465 49.2271 60.2124 51.7875C61.9599 54.364 65.0735 55.8776 68.1395 55.6683C70.3476 55.5234 72.5081 54.4606 74.0649 52.7859C74.6368 52.1739 75.1292 51.4654 75.5105 50.7086C76.8926 47.9066 76.7019 44.3962 75.018 41.7553C74.6209 41.1433 74.1761 40.6119 73.6995 40.1611C72.0633 38.583 69.8551 37.7295 67.5676 37.7295Z" fill="#006064"/>
<path d="M46.3283 51.1594C46.0424 51.4976 45.7247 51.8197 45.3752 52.0773C44.0567 53.1079 42.3569 53.6071 40.673 53.7681C37.9724 54.0258 35.0812 53.4622 32.9683 51.7391C31.3798 50.4509 30.3154 48.4219 30.236 46.3929C30.2042 45.7005 30.2995 45.0242 30.506 44.3639C30.8555 43.3011 32.2535 43.2367 33.3655 43.1884C38.1154 42.963 42.9605 42.5604 47.6945 42.335C47.774 43.0596 47.8375 43.7842 47.8852 44.525C48.0281 46.9243 47.8057 49.3398 46.3283 51.1594Z" fill="white"/>
<path d="M47.9008 44.525C41.9595 44.4928 35.8911 44.4928 30.2516 46.3929C30.2198 45.7005 30.3151 45.0242 30.5217 44.3639C30.8711 43.3011 32.2691 43.2367 33.3811 43.1884C38.131 42.963 42.9762 42.5604 47.7102 42.335C47.7896 43.0435 47.869 43.7842 47.9008 44.525Z" fill="#E6E6E6"/>
<path d="M39.4497 54.2029C36.8603 54.2029 34.4774 53.43 32.7458 52.029C30.3789 50.0966 29.3145 46.8921 30.1723 44.2351C30.6013 42.9308 32.1898 42.8503 33.3495 42.7858H33.3654C35.7483 42.6731 38.1788 42.5121 40.5458 42.3672C42.8969 42.2061 45.3274 42.0612 47.7103 41.9485C47.8056 41.9485 47.9168 41.9807 47.9804 42.0451C48.0439 42.1095 48.0916 42.2061 48.0916 42.3028C48.4411 45.5556 48.6158 48.9372 46.6301 51.3849C46.3124 51.7714 45.9629 52.0934 45.6134 52.3672C44.0566 53.5749 42.1026 53.9936 40.7364 54.1385C40.2916 54.1868 39.8627 54.2029 39.4497 54.2029ZM47.3767 42.7214C45.1209 42.8342 42.8175 42.9791 40.5776 43.124C38.2106 43.285 35.78 43.43 33.3972 43.5427H33.3813C32.3805 43.591 31.1414 43.6554 30.8872 44.4606C30.1247 46.8277 31.0937 49.6941 33.2224 51.4332C35.0811 52.9469 37.7976 53.6554 40.657 53.3817C41.9279 53.2528 43.7389 52.8664 45.1686 51.7552C45.4863 51.5137 45.7881 51.2238 46.0741 50.8857C47.7898 48.7762 47.6944 45.7166 47.3767 42.7214Z" fill="#006064"/>
<path d="M42.8013 75.5556C42.706 75.5556 42.6107 75.5234 42.5471 75.4429C42.4042 75.2979 42.3883 75.0564 42.5313 74.9115C45.5337 71.7553 48.6473 68.4863 52.5552 66.3446C55.0493 64.992 57.321 64.5089 59.2908 64.9276C61.5307 65.3946 63.8183 67.5202 63.5959 70.1128C63.58 70.3221 63.3894 70.467 63.1988 70.4509C62.9922 70.4348 62.8493 70.2577 62.8652 70.0483C63.0558 67.8744 61.0859 66.0709 59.1479 65.6683C57.3528 65.2818 55.2399 65.7327 52.9047 67.021C49.0921 69.0983 46.0261 72.3189 43.0555 75.4429C42.9919 75.5073 42.8966 75.5556 42.8013 75.5556Z" fill="#006064"/>
<path d="M75.8442 50.8696C75.447 51.6586 74.9546 52.3994 74.3509 53.0435C72.8576 52.4477 71.6503 51.0467 71.0466 49.5008C70.1729 47.2625 70.3477 44.6377 71.5232 42.5604C72.1269 41.4976 72.9847 40.4992 73.9538 39.8873C74.4621 40.3543 74.9228 40.9179 75.3358 41.5459C77.0833 44.2834 77.2898 47.9549 75.8442 50.8696Z" fill="#006064"/>
<path d="M46.3282 51.1594C46.0423 51.4976 45.7246 51.8197 45.3751 52.0773C44.1678 51.3205 43.2464 49.6135 43.0716 48.4058C42.7221 46.1192 44.0407 43.6715 46.1217 42.7214C46.6301 42.496 47.1702 42.3511 47.7262 42.335C48.0439 45.3784 48.2663 48.7923 46.3282 51.1594Z" fill="#006064"/>
<path d="M43.2306 51.8358C41.7691 52.7053 39.9581 53.1079 38.1948 52.9147C35.5101 52.6248 32.9842 50.9823 31.7928 48.7118C30.6013 46.4573 30.792 43.6715 32.2694 41.6425C33.1431 40.4509 34.3028 39.6296 35.6213 39.1627C34.827 39.6296 34.128 40.2577 33.5561 41.0467C32.0787 43.0757 31.8881 45.8615 33.0795 48.116C34.271 50.3704 36.7968 52.029 39.4815 52.3189C40.7524 52.4477 42.0551 52.2705 43.2306 51.8358Z" fill="#E6E6E6"/>
<path d="M23.2778 47.4235C26.9792 44.9115 31.4114 43.5427 35.8594 43.5266C38.0835 43.5266 40.3075 43.8487 42.5315 43.752C44.7555 43.6554 47.059 43.0757 48.6793 41.5137C50.2997 39.9678 50.9828 37.2786 49.7754 35.3784C46.9001 37.4557 43.0557 38.0032 39.5132 38.116C35.9706 38.2287 32.2851 38.2126 29.1079 39.7907C26.1532 41.24 24.1039 44.2029 23.2778 47.4235Z" fill="#006064"/>
<path d="M82.1666 37.6007C78.4652 35.0886 74.0331 33.7198 69.585 33.7037C67.361 33.7037 65.137 34.0258 62.913 33.9292C60.6889 33.8325 58.3855 33.2528 56.7651 31.6908C55.1448 30.1449 54.4617 27.4557 55.669 25.5556C58.5443 27.6329 62.3887 28.1804 65.9313 28.2931C69.4738 28.4058 73.1593 28.3897 76.3365 29.9678C79.2913 31.4171 81.3406 34.38 82.1666 37.6007Z" fill="#006064"/>
<path d="M44.4218 48.4863H43.2145C42.6426 48.4863 42.166 48.0032 42.166 47.4235C42.166 46.8438 42.6426 46.3607 43.2145 46.3607H44.4218C44.9937 46.3607 45.4703 46.8438 45.4703 47.4235C45.4703 48.0193 45.0096 48.4863 44.4218 48.4863Z" fill="white"/>
<path d="M71.7773 48.2609H70.57C69.9981 48.2609 69.5215 47.7778 69.5215 47.1981C69.5215 46.6184 69.9981 46.1353 70.57 46.1353H71.7773C72.3492 46.1353 72.8257 46.6184 72.8257 47.1981C72.8257 47.7939 72.3651 48.2609 71.7773 48.2609Z" fill="white"/>
</g>
<defs>
<clipPath id="clip0_104_13311">
<rect width="58.8889" height="50" fill="white" transform="translate(23.2778 25.5556)"/>
</clipPath>
</defs>
</svg>
